<svg width="36" height="36" viewBox="0 0 36 36" fill="none" xmlns="http://www.w3.org/2000/svg">
<rect width="36" height="36" rx="18" fill="white"/>
<path fill-rule="evenodd" clip-rule="evenodd" d="M12.0575 13.8979C12.1747 13.5138 12.5319 13.2344 12.9543 13.2344H23.4543C23.8768 13.2344 24.234 13.5138 24.3512 13.8979L18.2043 17.9958L12.0575 13.8979ZM10.8919 14.1616C10.8918 14.1676 10.8918 14.1736 10.8918 14.1796V21.6719C10.8918 22.811 11.8153 23.7344 12.9543 23.7344H23.4543C24.5934 23.7344 25.5168 22.811 25.5168 21.6719V14.1796M24.3918 15.2229V21.6719C24.3918 22.1896 23.9721 22.6094 23.4543 22.6094H12.9543C12.4366 22.6094 12.0168 22.1896 12.0168 21.6719V15.2229L17.8923 19.1399C18.0813 19.2659 18.3274 19.2659 18.5164 19.1399L24.3918 15.2229ZM25.5168 14.1616C25.5113 13.0272 24.59 12.1094 23.4543 12.1094H12.9543C11.8187 12.1094 10.8974 13.0272 10.8919 14.1616" fill="#282828"/>
</svg>
