<svg width="36" height="36" viewBox="0 0 36 36" fill="none" xmlns="http://www.w3.org/2000/svg">
<rect width="36" height="36" rx="18" fill="white"/>
<path fill-rule="evenodd" clip-rule="evenodd" d="M15.2433 12.5239C13.8972 12.5239 12.8058 13.6152 12.8058 14.9614V20.9614C12.8058 22.3076 13.8972 23.3989 15.2433 23.3989H21.2433C22.5895 23.3989 23.6808 22.3076 23.6808 20.9614V14.9614C23.6808 13.6152 22.5895 12.5239 21.2433 12.5239H15.2433ZM11.6808 14.9614C11.6808 12.9939 13.2758 11.3989 15.2433 11.3989H21.2433C23.2109 11.3989 24.8058 12.9939 24.8058 14.9614V20.9614C24.8058 22.9289 23.2109 24.5239 21.2433 24.5239H15.2433C13.2758 24.5239 11.6808 22.9289 11.6808 20.9614V14.9614ZM18.2433 16.2739C17.3114 16.2739 16.5558 17.0294 16.5558 17.9614C16.5558 18.8934 17.3114 19.6489 18.2433 19.6489C19.1753 19.6489 19.9308 18.8934 19.9308 17.9614C19.9308 17.0294 19.1753 16.2739 18.2433 16.2739ZM15.4308 17.9614C15.4308 16.4081 16.69 15.1489 18.2433 15.1489C19.7966 15.1489 21.0558 16.4081 21.0558 17.9614C21.0558 19.5147 19.7966 20.7739 18.2433 20.7739C16.69 20.7739 15.4308 19.5147 15.4308 17.9614ZM22.1808 14.5864C22.1808 14.2758 21.929 14.0239 21.6183 14.0239C21.3077 14.0239 21.0558 14.2758 21.0558 14.5864V14.5874C21.0558 14.8981 21.3077 15.1499 21.6183 15.1499C21.929 15.1499 22.1808 14.8981 22.1808 14.5874V14.5864Z" fill="#282828"/>
</svg>
