<svg width="102" height="80" viewBox="0 0 102 80" fill="none" xmlns="http://www.w3.org/2000/svg">
<path fill-rule="evenodd" clip-rule="evenodd" d="M13.3214 23.7989C6.77035 31.3485 0.489094 40.7106 0.42611 47.7084C0.401579 50.3414 1.25817 52.64 3.31281 54.381C6.26978 56.8884 9.52776 57.7726 12.7698 57.7778C17.5076 57.7843 22.2123 55.9086 25.8959 54.4623C32.0996 52.0278 100.676 22.8048 100.676 22.8048C101.337 22.4795 101.213 22.0742 100.385 22.2765C100.051 22.3585 25.7295 42.123 25.7295 42.123C24.3217 42.5137 22.867 42.7181 21.4041 42.7307C15.6923 42.7639 10.6098 39.6527 10.6509 33.0966C10.6668 30.5313 11.467 27.4377 13.3214 23.7989Z" fill="#9D9FA2"/>
</svg>
