<svg width="28" height="28" viewBox="0 0 28 28" fill="none" xmlns="http://www.w3.org/2000/svg">
<path fill-rule="evenodd" clip-rule="evenodd" d="M5.7261 11.9147C5.7261 8.56388 8.44247 5.84751 11.7933 5.84751C15.1441 5.84751 17.8605 8.56388 17.8605 11.9147C17.8605 15.2655 15.1441 17.9819 11.7933 17.9819C8.44247 17.9819 5.7261 15.2655 5.7261 11.9147ZM11.7933 4.23212C7.55032 4.23212 4.11072 7.67173 4.11072 11.9147C4.11072 16.1577 7.55032 19.5973 11.7933 19.5973C13.6239 19.5973 15.305 18.957 16.6248 17.8881L22.0255 23.2889C22.341 23.6043 22.8524 23.6043 23.1678 23.2889C23.4832 22.9734 23.4832 22.462 23.1678 22.1466L17.767 16.7459C18.8357 15.4261 19.4759 13.7452 19.4759 11.9147C19.4759 7.67173 16.0363 4.23212 11.7933 4.23212Z" fill="#282828"/>
</svg>
