<svg width="114" height="80" viewBox="0 0 114 80" fill="none" xmlns="http://www.w3.org/2000/svg">
<path fill-rule="evenodd" clip-rule="evenodd" d="M97.388 22.039C96.6216 21.2721 95.5526 20.8889 94.5668 20.8889H19.1586C18.1859 20.8889 17.1176 21.3133 16.378 22.039L1.2439 37.2394C-0.317042 38.787 -0.289541 41.3073 1.2714 42.8543L16.4193 57.9596C17.1451 58.6859 18.1859 59.1098 19.1586 59.1098H94.5943C95.5526 59.1373 96.621 58.7541 97.388 57.9871L112.535 42.8274C114.056 41.3073 114.056 38.7601 112.535 37.24L97.388 22.039ZM96.3191 55.8226C95.6345 56.5076 94.7306 56.837 93.8261 56.837V56.8376H19.6649C18.8154 56.8089 17.884 56.4532 17.227 55.7957L3.87377 42.4574C2.51848 41.1016 2.49098 38.897 3.84686 37.5413L17.2001 24.1755C17.8571 23.5323 18.7885 23.1623 19.6655 23.1623H93.8261C94.7031 23.1898 95.6345 23.5317 96.3191 24.203L109.672 37.5688C110.324 38.2211 110.689 39.1051 110.689 40.0268C110.689 40.9486 110.324 41.8326 109.672 42.4849L96.3191 55.8226ZM34.7677 44.9489C36.3914 47.9371 34.4264 51.2829 30.9062 51.2829V51.2823H20.304C19.731 51.2541 19.4582 50.965 19.4308 50.4007V47.5921C19.4318 47.4636 19.4581 47.3365 19.5081 47.2182C19.5582 47.1 19.631 46.993 19.7224 46.9033C19.8137 46.8137 19.9218 46.7433 20.0404 46.6962C20.1589 46.649 20.2856 46.6261 20.413 46.6287H27.1126C27.6171 46.6287 27.7541 46.2291 27.5629 45.94C26.8352 45.0165 25.8445 43.8999 24.771 42.69C22.5637 40.2023 20.0064 37.3202 18.666 34.9115C17.5748 32.9564 18.4748 28.7157 21.9819 28.7157H32.1475C32.68 28.7157 33.0755 29.1701 33.1029 29.6797V32.475C33.1029 33.067 32.8575 33.3146 32.2297 33.3423H26.2942C25.639 33.3423 25.5568 33.8381 25.7891 34.0857C26.7332 35.2288 27.8343 36.4451 28.9508 37.6784C31.2233 40.1887 33.5599 42.7699 34.7677 44.9489ZM42.614 41.8928V50.3466C42.614 50.8562 42.1357 51.2829 41.714 51.2829H37.6339C37.2104 51.2829 36.7601 50.8562 36.7327 50.3742L36.7059 29.6803C36.7059 29.1436 37.0603 28.7169 37.7155 28.6893H41.5907C42.1637 28.6893 42.614 29.143 42.614 29.6803V36.7295H47.226V29.6803C47.226 29.2536 47.5673 28.7169 48.263 28.6893H52.1525C52.7934 28.6893 53.1347 29.143 53.1347 29.6803L53.162 50.3466C53.162 50.9109 52.7118 51.2829 52.2067 51.2829H48.1266C47.7579 51.2829 47.1986 50.8286 47.1986 50.3466V41.8928H42.614ZM88.0798 51.2829H75.3214C74.8437 51.2553 74.3666 50.7456 74.3392 50.3466V29.6803C74.3392 29.226 74.8437 28.7434 75.3488 28.7163H88.0524C88.6665 28.7163 88.9798 29.0607 88.9798 29.6527V32.4756C89.0072 32.9853 88.5575 33.3429 88.134 33.3429H80.479V37.2939H85.5145C86.019 37.3486 86.4418 37.7482 86.4144 38.175V41.0388C86.4418 41.4661 86.0743 41.9475 85.5686 41.9198H80.479V46.6011H88.1072C88.6385 46.6011 89.0346 47.0008 89.0346 47.5651V50.3466C89.0346 51.0347 88.6385 51.2553 88.0798 51.2829ZM95.4478 51.2553H91.6822C91.2313 51.2553 90.781 50.9109 90.7542 50.3742V29.6527C90.7542 29.0607 91.0943 28.7434 91.709 28.7163H95.393C95.9255 28.7163 96.2942 29.143 96.3216 29.6527V50.3742C96.3216 50.9386 95.9529 51.2553 95.4478 51.2553ZM55.4951 31.9245C55.2497 37.2958 55.2497 42.6758 55.4951 48.0471C55.4951 49.4655 57.0503 51.3106 58.7014 51.3106H68.7176C70.4235 51.3106 71.8429 49.6031 71.8429 48.0471C72.1157 42.5533 72.1157 37.1839 71.8429 31.8968C71.8018 30.5061 70.1501 28.7163 68.7176 28.7163H58.7288C56.983 28.7716 55.5499 30.6167 55.4951 31.9245ZM65.2516 46.8499C64.1735 46.9046 63.1359 46.9046 62.1263 46.8499C61.7582 46.8217 61.3901 46.4779 61.3627 45.7759C61.1441 41.9204 61.0488 38.0656 61.3627 34.1969C61.4175 33.522 61.704 33.1776 62.1263 33.1223C63.1365 33.0123 64.2009 33.0123 65.2516 33.0946C65.5929 33.0946 65.8657 33.549 65.8925 34.1963C66.1516 38.065 66.1516 41.8928 65.8925 45.7753C65.8657 46.3402 65.7019 46.8223 65.2516 46.8499Z" fill="#9D9FA2"/>
</svg>
