<svg width="28" height="28" viewBox="0 0 28 28" fill="none" xmlns="http://www.w3.org/2000/svg">
<path fill-rule="evenodd" clip-rule="evenodd" d="M9.65589 9.33298C9.65589 7.20173 11.3836 5.47401 13.5149 5.47401C15.6461 5.47401 17.3738 7.20173 17.3738 9.33298C17.3738 11.4642 15.6461 13.192 13.5149 13.192C11.3836 13.192 9.65589 11.4642 9.65589 9.33298ZM13.5149 3.85862C10.4915 3.85862 8.04051 6.30958 8.04051 9.33298C8.04051 12.3564 10.4915 14.8073 13.5149 14.8073C16.5383 14.8073 18.9892 12.3564 18.9892 9.33298C18.9892 6.30958 16.5383 3.85862 13.5149 3.85862ZM8.45281 19.317C9.1765 18.5933 10.158 18.1867 11.1815 18.1867H15.8482C16.8716 18.1867 17.8532 18.5933 18.5769 19.317C19.3006 20.0407 19.7072 21.0223 19.7072 22.0457V24.3791C19.7072 24.8251 20.0688 25.1867 20.5148 25.1867C20.9609 25.1867 21.3225 24.8251 21.3225 24.3791V22.0457C21.3225 20.5938 20.7458 19.2014 19.7191 18.1748C18.6925 17.1481 17.3001 16.5714 15.8482 16.5714H11.1815C9.72962 16.5714 8.3372 17.1481 7.31056 18.1748C6.28391 19.2014 5.70715 20.5938 5.70715 22.0457V24.3791C5.70715 24.8251 6.06877 25.1867 6.51485 25.1867C6.96092 25.1867 7.32254 24.8251 7.32254 24.3791V22.0457C7.32254 21.0223 7.72911 20.0407 8.45281 19.317Z" fill="#282828"/>
</svg>
