<svg width="122" height="80" viewBox="0 0 122 80" fill="none" xmlns="http://www.w3.org/2000/svg">
<path fill-rule="evenodd" clip-rule="evenodd" d="M94.1882 39.6218H89.3911C89.3911 39.6218 89.3237 37.3958 87.0988 37.3958C84.8883 37.3958 84.9288 39.5547 84.9288 40.4587V47.5411H79.3664V38.8127C79.3664 38.8127 79.5143 32.4716 87.206 32.4716C87.206 32.4716 92.58 31.7967 94.871 37.1798C94.871 37.1798 96.4799 32.4716 103.006 32.4716H109.143C109.143 32.4716 116.663 32.4176 116.663 39.5138H110.632C110.632 39.5138 110.457 37.7599 108.313 37.7599H103.664C103.664 37.7599 100.607 37.5439 100.607 40.0261C100.607 42.5082 102.323 42.6571 104.092 42.6571H121.125V47.5404H102.832C102.832 47.5404 94.1882 48.2693 94.1882 39.6218ZM63.2183 42.684H70.16V47.5404H61.9449C61.9449 47.5404 54.1858 47.204 54.1858 40.404C54.1858 33.5908 60.8057 32.4716 63.4995 32.4716H76.7523V47.5411H71.0036V37.8138H63.0437C63.0437 37.8138 60.5519 37.7737 60.5519 40.2019C60.5519 42.6162 62.7762 42.684 63.2183 42.684ZM8.42157 37.7869H0.675476V32.4716H11.8388C11.8388 32.4716 15.203 32.6336 15.203 35.8038V40.3369L23.9536 32.4716H27.2766C27.2766 32.4716 30.4525 32.4446 30.4525 35.9526V40.4317L39.2973 32.4716H42.8087C42.8087 32.4716 46.0251 32.6336 46.0251 36.3437V41.9829C46.0251 41.9829 46.0251 42.5089 46.6013 42.5089H53.5299V47.5411H44.0552C44.0552 47.5411 39.901 47.9467 39.901 43.6697V40.647C39.901 40.647 39.8742 39.9458 39.2038 40.62L31.6461 47.5404H28.3087C28.3087 47.5404 24.4624 47.6754 24.4624 43.696V40.3369C24.4624 40.3369 24.5298 39.7021 24.0066 40.2559L16.1408 47.5404H12.8976C12.8976 47.5404 9.29271 47.892 9.29271 43.8711V38.488C9.29271 38.4887 9.38622 37.7869 8.42157 37.7869Z" fill="#9D9FA2"/>
</svg>
